<?xml version="1.0" encoding="utf-8"?>
<!-- Generator: Adobe Illustrator 18.0.0, SVG Export Plug-In . SVG Version: 6.00 Build 0)  -->
<!DOCTYPE svg PUBLIC "-//W3C//DTD SVG 1.1//EN" "http://www.w3.org/Graphics/SVG/1.1/DTD/svg11.dtd">
<svg version="1.1" id="Calque_1" xmlns="http://www.w3.org/2000/svg" xmlns:xlink="http://www.w3.org/1999/xlink" x="0px" y="0px"
	 viewBox="0 0 1024 748" enable-background="new 0 0 1024 748" xml:space="preserve">
<g>
	<polygon points="769.6,495.7 769.6,651.1 614.2,651.1 	"/>
	<g>
		<path d="M760.5,645.8c-0.9,0-1.9-0.4-2.6-1.1L592.1,479c-1.5-1.5-1.5-3.9,0-5.4c1.5-1.5,3.9-1.5,5.4,0l165.8,165.8
			c1.5,1.5,1.5,3.9,0,5.4C762.5,645.4,761.6,645.8,760.5,645.8z"/>
	</g>
</g>
<g>
	<g>
		<path d="M200.7,645.8c-0.9,0-1.9-0.4-2.6-1.1c-1.5-1.5-1.5-3.9,0-5.4l163.5-163.5c1.5-1.5,3.9-1.5,5.4,0c1.5,1.5,1.5,3.9,0,5.4
			L203.3,644.7C202.6,645.4,201.6,645.8,200.7,645.8z"/>
	</g>
	<polygon points="347,651.1 191.6,651.1 191.6,495.7 	"/>
</g>
<g>
	<polygon points="191.6,228.4 191.6,73.1 347,73.1 	"/>
	<g>
		<path d="M366.3,251.6c-0.9,0-1.9-0.4-2.6-1.1L197.9,84.8c-1.5-1.5-1.5-3.9,0-5.4c1.5-1.5,3.9-1.5,5.4,0l165.8,165.8
			c1.5,1.5,1.5,3.9,0,5.4C368.3,251.2,367.4,251.6,366.3,251.6z"/>
	</g>
</g>
<g>
	<g>
		<path d="M597.2,249.3c-0.9,0-1.9-0.4-2.6-1.1c-1.5-1.5-1.5-3.9,0-5.4L758,79.3c1.5-1.5,3.9-1.5,5.4,0s1.5,3.9,0,5.4L599.8,248.2
			C599,249,598.1,249.3,597.2,249.3z"/>
	</g>
	<polygon points="614.2,73.1 769.6,73.1 769.6,228.4 	"/>
</g>
</svg>
