<?xml version="1.0" encoding="utf-8"?>
<!-- Generator: Adobe Illustrator 18.1.0, SVG Export Plug-In . SVG Version: 6.00 Build 0)  -->
<svg version="1.1" id="Calque_1" xmlns="http://www.w3.org/2000/svg" xmlns:xlink="http://www.w3.org/1999/xlink" x="0px" y="0px"
	 viewBox="0 0 128 128" enable-background="new 0 0 128 128" xml:space="preserve">
<g>
	<path d="M114.1,64.9c-1.4-10.8-6.6-21.1-15-29.5c-9.3-9.4-21.8-14.6-35-14.6c-13.3,0-25.7,5.1-34.9,14.5
		c-8.4,8.4-13.7,18.8-15.2,29.6H23v6c0-0.2,0-0.5,0-0.7c0.3-10.2,4.9-20.3,13.1-28.5c7.6-7.5,17.5-11.6,28.1-11.6
		c10.5,0,20.5,4.2,28.2,11.7c7.6,7.6,12.1,17,12.7,26.6v-3.5H114.1z"/>
	<path d="M116.5,64.9h-2.4H105v3.5v9v18.3v12.5h11.5c6.5,0,11.5-5.7,11.5-12.5V77.4C128,70.4,122.8,64.9,116.5,64.9z"/>
	<path d="M13.9,64.9h-2.4C5.2,64.9,0,70.4,0,77.4v18.3c0,6.8,5,12.5,11.5,12.5H23V95.7V77.4v-6.5v-6H13.9z"/>
</g>
</svg>
