<?xml version="1.0" encoding="utf-8"?>
<!-- Generator: Adobe Illustrator 18.1.1, SVG Export Plug-In . SVG Version: 6.00 Build 0)  -->
<svg version="1.1" id="Calque_1" xmlns="http://www.w3.org/2000/svg" xmlns:xlink="http://www.w3.org/1999/xlink" x="0px" y="0px"
	 viewBox="241.9 209.7 128 128" enable-background="new 241.9 209.7 128 128" xml:space="preserve">
<path d="M284,326.3c-1.2,0-2.4,0-3.6,0c-0.9,0-1.6-0.2-2.6-0.2c-2.1-0.2-4.5-0.2-6.7-0.7c-6.9-0.9-13.6-2.8-20.1-6
	c-3.1-1.4-6-3.1-9.1-4.8c0-0.2,0-0.2,0-0.5c14.1,1.2,27-2.4,38.5-11c-12.2-0.9-20.3-7.1-24.6-17.9c1.9,0,3.8,0,5.7,0
	c1.9,0,3.8-0.5,5.5-0.7c0-0.2,0-0.2,0-0.5c-6-1.4-11-4.5-14.8-9.3c-3.8-4.8-5.7-10.3-5.7-16.5c1.9,0.7,3.8,1.4,5.5,2.1
	c1.9,0.5,3.8,0.7,5.7,1.2c0-0.2,0-0.2,0.2-0.5c-5.5-4-9.3-9.3-10.7-16c-1.4-6.7-0.5-12.9,2.8-19.1c6.9,8.3,15,14.8,24.4,19.6
	c9.5,4.8,19.3,7.4,30.1,7.9c0-0.7-0.2-1.2-0.2-1.4c0-2.4-0.5-4.8-0.2-6.9c1.2-11.5,9.1-20.5,20.5-23.2c1.6-0.5,3.6-0.5,5.2-0.7
	c0.2,0,0.7,0,0.9,0c1.6,0.2,3.3,0.5,5,0.7c5,0.9,9.3,3.3,13.1,6.9c0.2,0.2,0.9,0.7,1.4,0.5c3.3-0.9,6.4-1.9,9.5-3.1
	c2.1-0.7,4-1.9,6.4-2.8c-2.1,6.2-6,10.7-11,14.3c2.4-0.5,5-0.7,7.4-1.4c2.4-0.7,4.8-1.4,7.1-2.4c-1.9,3.3-6.7,8.6-11.9,12.6
	c-0.7,0.5-0.9,0.9-0.9,1.9c-0.2,4.3-0.2,8.3-0.7,12.6c-2.1,14.6-7.9,27.9-17.7,39.2c-12.9,15.3-29.4,23.6-49.2,25.3
	C287.9,325.8,285.9,326,284,326.3z"/>
</svg>
