<?xml version="1.0" encoding="utf-8"?>
<!-- Generator: Adobe Illustrator 18.1.0, SVG Export Plug-In . SVG Version: 6.00 Build 0)  -->
<svg version="1.1" id="Calque_1" xmlns="http://www.w3.org/2000/svg" xmlns:xlink="http://www.w3.org/1999/xlink" x="0px" y="0px"
	 viewBox="0 0 128 128" enable-background="new 0 0 128 128" xml:space="preserve">
<path d="M0,103.9h48.8V95H11V67.9h30.5v-8.5H11V33.1h37.8v-9H0V103.9z M118.7,24.2v55.5c0,0.9-0.4,1.3,0,2.6c0.4,1.2,0.4,2,0.4,2.9
	L73.3,25.9c-0.8-0.4-1.2-0.8-1.7-1.2c-0.4-0.4-1.2-0.4-2.1-0.4H64v78.9h8.9V41.6l45.9,59.3c0.4,0.8,1.2,1.2,1.7,1.7
	c0.4,0.4,1.2,0.4,2.1,0.4h5.4V24.2H118.7z"/>
</svg>
