<?xml version="1.0" encoding="utf-8"?>
<!-- Generator: Adobe Illustrator 18.1.1, SVG Export Plug-In . SVG Version: 6.00 Build 0)  -->
<svg version="1.1" id="Calque_1" xmlns="http://www.w3.org/2000/svg" xmlns:xlink="http://www.w3.org/1999/xlink" x="0px" y="0px"
	 viewBox="0 0 612 792" enable-background="new 0 0 612 792" xml:space="preserve">
<path d="M288.8,351.5v10h-42.6v29.6h34.4v9.6h-34.4v30.6h42.6v10h-55v-89.9H288.8z"/>
<path d="M314.6,352c0.5,0.5,1,1,1.9,1.4l51.6,66.9c0-1,0-1.9-0.5-3.3s0-1.9,0-2.9v-62.6h10.5v88.9H372c-1,0-1.9,0-2.4-0.5
	s-1.4-1-1.9-1.9L316,371.1c0,1,0,1.9,0,2.9s0,1.9,0,2.9v63.6h-10v-88.9h6.2C313.2,351.5,314.1,351.5,314.6,352z"/>
</svg>
