<?xml version="1.0" encoding="utf-8"?>
<!-- Generator: Adobe Illustrator 18.1.0, SVG Export Plug-In . SVG Version: 6.00 Build 0)  -->
<svg version="1.1" id="Calque_1" xmlns="http://www.w3.org/2000/svg" xmlns:xlink="http://www.w3.org/1999/xlink" x="0px" y="0px"
	 viewBox="0 0 128 128" enable-background="new 0 0 128 128" xml:space="preserve">
<path d="M52.5,11.4L26,37.9c-0.8,1.2-2.4,1.6-3.6,1.6H5.2c-2.8,0-5.2,2.4-5.2,5.2v38.5c0,2.8,2.4,5.2,5.2,5.2h17.3
	c1.2,0,2.8,0.8,3.6,1.6l26.5,26.5c3.2,3.2,8.8,0.8,8.8-3.6V15.1C61.4,10.6,55.7,8.2,52.5,11.4z M99.9,64c0-12.4-8.3-22.4-18.4-22.4
	c-1.1,0-2,0.9-2,2s0.9,2,2,2c8,0,14.5,8.3,14.5,18.5c0,10-6.6,18.5-14.5,18.5c-1.1,0-2,0.9-2,2s0.9,2,2,2
	C91.4,86.4,99.9,76.1,99.9,64z M90.7,15c-1.1,0-2,0.9-2,2s0.9,2,2,2c18.4,0,33.4,20.2,33.4,45s-15,45-33.4,45c-1.1,0-2,0.9-2,2
	s0.9,2,2,2c20.9,0,37.3-21.5,37.3-48.9S111.6,15,90.7,15z"/>
</svg>
