<?xml version="1.0" encoding="utf-8"?>
<!-- Generator: Adobe Illustrator 18.1.1, SVG Export Plug-In . SVG Version: 6.00 Build 0)  -->
<svg version="1.1" id="Calque_1" xmlns="http://www.w3.org/2000/svg" xmlns:xlink="http://www.w3.org/1999/xlink" x="0px" y="0px"
	 viewBox="0 0 612 792" enable-background="new 0 0 612 792" xml:space="preserve">
<path d="M293.6,333.4L262,364.9c-1,1.4-2.9,1.9-4.3,1.9h-20.6c-3.3,0-6.2,2.9-6.2,6.2v45.9c0,3.3,2.9,6.2,6.2,6.2h20.6
	c1.4,0,3.3,1,4.3,1.9l31.6,31.6c3.8,3.8,10.5,1,10.5-4.3V337.7C304.1,332.4,297.4,329.5,293.6,333.4z M348.6,396
	c0-14-9.2-25.4-20.6-25.4c-0.6,0-1,0.4-1,1s0.4,1,1,1c10.3,0,18.6,10.5,18.6,23.4c0,12.7-8.5,23.4-18.6,23.4c-0.6,0-1,0.4-1,1
	s0.4,1,1,1C339.2,421.4,348.6,409.8,348.6,396z M369.6,355.8c-8.1-10.8-19-16.7-30.6-16.7c-0.6,0-1,0.4-1,1s0.4,1,1,1
	c11,0,21.3,5.7,29,15.9c7.8,10.3,12.1,24.2,12.1,39s-4.3,28.7-12.1,39c-7.7,10.3-18,15.9-29,15.9c-0.6,0-1,0.4-1,1s0.4,1,1,1
	c11.6,0,22.5-5.9,30.6-16.7c8-10.7,12.5-25,12.5-40.2S377.6,366.5,369.6,355.8z"/>
</svg>
