<?xml version="1.0" encoding="utf-8"?>
<!-- Generator: Adobe Illustrator 18.1.1, SVG Export Plug-In . SVG Version: 6.00 Build 0)  -->
<svg version="1.1" id="Calque_1" xmlns="http://www.w3.org/2000/svg" xmlns:xlink="http://www.w3.org/1999/xlink" x="0px" y="0px"
	 viewBox="0 0 612 792" enable-background="new 0 0 612 792" xml:space="preserve">
<path d="M300.7,333.4l-31.6,31.6c-1,1.4-2.9,1.9-4.3,1.9h-20.6c-3.3,0-6.2,2.9-6.2,6.2v45.4c0,3.3,2.9,6.2,6.2,6.2h20.6
	c1.4,0,3.3,1,4.3,1.9l31.6,31.6c3.3,3.8,10,1,10-4.3V337.7C310.8,332.4,304.6,329.5,300.7,333.4z M353.5,396l21.1-21.3
	c0.4-0.4,0.4-1,0-1.4c-0.4-0.4-1-0.4-1.4,0l-21,21.3l-21-21.3c-0.4-0.4-1-0.4-1.4,0c-0.4,0.4-0.4,1,0,1.4l21.1,21.3l-21.1,21.3
	c-0.4,0.4-0.4,1,0,1.4c0.2,0.2,0.4,0.3,0.7,0.3c0.3,0,0.5-0.1,0.7-0.3l21-21.3l21,21.3c0.2,0.2,0.5,0.3,0.7,0.3
	c0.3,0,0.5-0.1,0.7-0.3c0.4-0.4,0.4-1,0-1.4L353.5,396z"/>
</svg>
