<?xml version="1.0" encoding="utf-8"?>
<!-- Generator: Adobe Illustrator 18.1.1, SVG Export Plug-In . SVG Version: 6.00 Build 0)  -->
<svg version="1.1" id="Calque_1" xmlns="http://www.w3.org/2000/svg" xmlns:xlink="http://www.w3.org/1999/xlink" x="0px" y="0px"
	 viewBox="184 259.8 128 128" enable-background="new 184 259.8 128 128" xml:space="preserve">
<path d="M184,363.7h48.8v-8.9H195v-27.1h30.5v-8.5H195v-26.3h37.8v-9H184V363.7z M302.7,284v55.5c0,0.9-0.4,1.3,0,2.6
	c0.4,1.2,0.4,2,0.4,2.9l-45.8-59.3c-0.8-0.4-1.2-0.8-1.7-1.2c-0.4-0.4-1.2-0.4-2.1-0.4H248v78.9h8.9v-61.6l45.9,59.3
	c0.4,0.8,1.2,1.2,1.7,1.7c0.4,0.4,1.2,0.4,2.1,0.4h5.4V284H302.7z"/>
</svg>
