<?xml version="1.0" encoding="utf-8"?>
<!-- Generator: Adobe Illustrator 18.1.0, SVG Export Plug-In . SVG Version: 6.00 Build 0)  -->
<svg version="1.1" id="Calque_1" xmlns="http://www.w3.org/2000/svg" xmlns:xlink="http://www.w3.org/1999/xlink" x="0px" y="0px"
	 viewBox="0 0 128 128" enable-background="new 0 0 128 128" xml:space="preserve">
<path d="M58.2,6L28.9,35.3c-0.9,1.3-2.7,1.8-4,1.8H5.8c-3.1,0-5.8,2.7-5.8,5.8v42.2c0,3.1,2.7,5.8,5.8,5.8h19.1c1.3,0,3.1,0.9,4,1.8
	L58.2,122c3.1,3.6,9.3,0.9,9.3-4V10C67.5,5.1,61.7,2.5,58.2,6z M108.5,64.2l18.9-19.1c0.7-0.7,0.7-1.9,0-2.6c-0.7-0.7-1.9-0.7-2.6,0
	l-18.9,19.1L87,42.5c-0.7-0.7-1.9-0.7-2.6,0s-0.7,1.9,0,2.6l18.9,19.1L84.4,83.3c-0.7,0.7-0.7,1.9,0,2.6c0.4,0.4,0.8,0.5,1.3,0.5
	s1-0.2,1.3-0.6l18.9-19.1l18.9,19.1c0.4,0.4,0.8,0.6,1.3,0.6s0.9-0.2,1.3-0.5c0.7-0.7,0.7-1.9,0-2.6L108.5,64.2z"/>
</svg>
