<?xml version="1.0" encoding="utf-8"?>
<!-- Generator: Adobe Illustrator 18.1.1, SVG Export Plug-In . SVG Version: 6.00 Build 0)  -->
<svg version="1.1" id="Calque_1" xmlns="http://www.w3.org/2000/svg" xmlns:xlink="http://www.w3.org/1999/xlink" x="0px" y="0px"
	 viewBox="204.8 193.8 128 128" enable-background="new 204.8 193.8 128 128" xml:space="preserve">
<path d="M257.3,205.2l-26.5,26.5c-0.8,1.2-2.4,1.6-3.6,1.6H210c-2.8,0-5.2,2.4-5.2,5.2V277c0,2.8,2.4,5.2,5.2,5.2h17.3
	c1.2,0,2.8,0.8,3.6,1.6l26.5,26.5c3.2,3.2,8.8,0.8,8.8-3.6v-97.9C266.2,204.4,260.5,202,257.3,205.2z M304.7,257.8
	c0-12.4-8.3-22.4-18.4-22.4c-1.1,0-2,0.9-2,2c0,1.1,0.9,2,2,2c8,0,14.5,8.3,14.5,18.5c0,10-6.6,18.5-14.5,18.5c-1.1,0-2,0.9-2,2
	s0.9,2,2,2C296.2,280.2,304.7,269.9,304.7,257.8z M295.5,208.8c-1.1,0-2,0.9-2,2c0,1.1,0.9,2,2,2c18.4,0,33.4,20.2,33.4,45
	s-15,45-33.4,45c-1.1,0-2,0.9-2,2s0.9,2,2,2c20.9,0,37.3-21.5,37.3-48.9S316.4,208.8,295.5,208.8z"/>
</svg>
