<?xml version="1.0" encoding="utf-8"?>
<!-- Generator: Adobe Illustrator 18.1.1, SVG Export Plug-In . SVG Version: 6.00 Build 0)  -->
<svg version="1.1" id="Calque_1" xmlns="http://www.w3.org/2000/svg" xmlns:xlink="http://www.w3.org/1999/xlink" x="0px" y="0px"
	 viewBox="0 0 612 792" enable-background="new 0 0 612 792" xml:space="preserve">
<path d="M262,513.6c-2.4,0-4.8,0-7.2,0c-1.9,0-3.3-0.5-5.3-0.5c-4.3-0.5-9.1-0.5-13.4-1.4c-13.9-1.9-27.3-5.7-40.2-12
	c-6.2-2.9-12-6.2-18.2-9.6c0-0.5,0-0.5,0-1c28.2,2.4,54-4.8,77-22c-24.4-1.9-40.6-14.3-49.2-35.9c3.8,0,7.6,0,11.5,0
	c3.8,0,7.6-1,11-1.4c0-0.5,0-0.5,0-1c-12-2.9-22-9.1-29.6-18.6c-7.6-9.6-11.5-20.6-11.5-33c3.8,1.4,7.6,2.9,11,4.3
	c3.8,1,7.6,1.4,11.5,2.4c0-0.5,0-0.5,0.5-1c-11-8.1-18.6-18.6-21.5-32c-2.9-13.4-1-25.8,5.7-38.2c13.9,16.7,30.1,29.6,48.8,39.2
	c19.1,9.6,38.7,14.8,60.2,15.8c0-1.4-0.5-2.4-0.5-2.9c0-4.8-1-9.6-0.5-13.9c2.4-23,18.2-41.1,41.1-46.4c3.3-1,7.2-1,10.5-1.4
	c0.5,0,1.4,0,1.9,0c3.3,0.5,6.7,1,10,1.4c10,1.9,18.6,6.7,26.3,13.9c0.5,0.5,1.9,1.4,2.9,1c6.7-1.9,12.9-3.8,19.1-6.2
	c4.3-1.4,8.1-3.8,12.9-5.7c-4.3,12.4-12,21.5-22,28.7c4.8-1,10-1.4,14.8-2.9c4.8-1.4,9.6-2.9,14.3-4.8c-3.8,6.7-13.4,17.2-23.9,25.3
	c-1.4,1-1.9,1.9-1.9,3.8c-0.5,8.6-0.5,16.7-1.4,25.3c-4.3,29.2-15.8,55.9-35.4,78.4c-25.8,30.6-58.8,47.3-98.5,50.7
	C269.7,512.7,265.8,513.1,262,513.6z"/>
</svg>
