<?xml version="1.0" encoding="utf-8"?>
<!-- Generator: Adobe Illustrator 18.1.1, SVG Export Plug-In . SVG Version: 6.00 Build 0)  -->
<svg version="1.1" id="Calque_1" xmlns="http://www.w3.org/2000/svg" xmlns:xlink="http://www.w3.org/1999/xlink" x="0px" y="0px"
	 viewBox="219 257.4 128 128" enable-background="new 219 257.4 128 128" xml:space="preserve">
<path d="M277.2,263.4l-29.3,29.3c-0.9,1.3-2.7,1.8-4,1.8h-19.1c-3.1,0-5.8,2.7-5.8,5.8v42.2c0,3.1,2.7,5.8,5.8,5.8h19.1
	c1.3,0,3.1,0.9,4,1.8l29.3,29.3c3.1,3.6,9.3,0.9,9.3-4V267.4C286.5,262.5,280.7,259.9,277.2,263.4z M327.5,321.6l18.9-19.1
	c0.7-0.7,0.7-1.9,0-2.6c-0.7-0.7-1.9-0.7-2.6,0L324.9,319L306,299.9c-0.7-0.7-1.9-0.7-2.6,0c-0.7,0.7-0.7,1.9,0,2.6l18.9,19.1
	l-18.9,19.1c-0.7,0.7-0.7,1.9,0,2.6c0.4,0.4,0.8,0.5,1.3,0.5c0.5,0,1-0.2,1.3-0.6l18.9-19.1l18.9,19.1c0.4,0.4,0.8,0.6,1.3,0.6
	c0.5,0,0.9-0.2,1.3-0.5c0.7-0.7,0.7-1.9,0-2.6L327.5,321.6z"/>
</svg>
