<?xml version="1.0" encoding="utf-8"?>
<!-- Generator: Adobe Illustrator 18.1.0, SVG Export Plug-In . SVG Version: 6.00 Build 0)  -->
<svg version="1.1" id="Calque_1" xmlns="http://www.w3.org/2000/svg" xmlns:xlink="http://www.w3.org/1999/xlink" x="0px" y="0px"
	 viewBox="0 0 128 128" enable-background="new 0 0 128 128" xml:space="preserve">
<path d="M53.9,10.4l-27.1,27c-0.8,1.2-2.5,1.7-3.7,1.7H5.4c-2.9,0-5.4,2.5-5.4,5.4v39c0,2.9,2.5,5.4,5.4,5.4h17.7
	c1.2,0,2.9,0.8,3.7,1.7l27.1,27.1c2.9,3.3,8.6,0.8,8.6-3.7V14.1C62.5,9.5,57.1,7.1,53.9,10.4z M100.4,64.2l17.5-17.7
	c0.6-0.6,0.6-1.8,0-2.4c-0.6-0.6-1.8-0.6-2.4,0L98,61.8L80.5,44.1c-0.6-0.6-1.8-0.6-2.4,0s-0.6,1.8,0,2.4l17.5,17.7L78.1,81.8
	c-0.6,0.6-0.6,1.8,0,2.4c0.4,0.4,0.7,0.5,1.2,0.5s0.9-0.2,1.2-0.6L98,66.4l17.5,17.7c0.4,0.4,0.7,0.6,1.2,0.6s0.8-0.2,1.2-0.5
	c0.6-0.6,0.6-1.8,0-2.4L100.4,64.2z"/>
</svg>
