<?xml version="1.0" encoding="utf-8"?>
<!-- Generator: Adobe Illustrator 18.1.0, SVG Export Plug-In . SVG Version: 6.00 Build 0)  -->
<svg version="1.1" id="Calque_1" xmlns="http://www.w3.org/2000/svg" xmlns:xlink="http://www.w3.org/1999/xlink" x="0px" y="0px"
	 viewBox="0 0 128 128" enable-background="new 0 0 128 128" xml:space="preserve">
<g>
	<path d="M128,128.1H93.4c-2.3,0-4.2-1.9-4.2-4.2s1.9-4.2,4.2-4.2h26.2V93.4c0-2.3,1.9-4.2,4.2-4.2s4.2,1.9,4.2,4.2L128,128.1
		L128,128.1z"/>
	<path d="M34.6,128.1H0V93.5c0-2.3,1.9-4.2,4.2-4.2c2.3,0,4.2,1.9,4.2,4.2v26.3h26.2c2.3,0,4.2,1.9,4.2,4.2S36.9,128.1,34.6,128.1z"
		/>
	<path d="M4.1,38.8c-2.3,0-4.2-1.9-4.2-4.2V0.1h34.7c2.3,0,4.2,1.9,4.2,4.2c0,2.3-1.9,4.2-4.2,4.2H8.4v26.2
		C8.4,36.9,6.4,38.8,4.1,38.8z"/>
	<path d="M123.9,38.8c-2.3,0-4.2-1.9-4.2-4.2V8.3H93.4c-2.3,0-4.2-1.9-4.2-4.2c0-2.3,1.9-4.2,4.2-4.2H128v34.5
		C128,36.9,126.1,38.8,123.9,38.8z"/>
</g>
</svg>
