<?xml version="1.0" encoding="utf-8"?>
<!-- Generator: Adobe Illustrator 18.1.1, SVG Export Plug-In . SVG Version: 6.00 Build 0)  -->
<svg version="1.1" id="Calque_1" xmlns="http://www.w3.org/2000/svg" xmlns:xlink="http://www.w3.org/1999/xlink" x="0px" y="0px"
	 viewBox="0 0 612 792" enable-background="new 0 0 612 792" xml:space="preserve">
<path d="M292.1,351.5v10h-42.6v31.1h36.3v10h-36.3v38.2h-12v-89.4H292.1z"/>
<path d="M320.8,403.2v37.3h-12v-88.9h25.3c5.7,0,10.5,0.5,14.8,1.9c4.3,1,7.6,2.9,10,4.8c2.9,2.4,4.8,4.8,5.7,7.6
	c1,2.9,1.9,6.2,1.9,10c0,3.3-0.5,6.2-1.4,8.6s-2.4,5.3-4.3,7.2c-1.9,2.4-4.3,3.8-6.7,5.7c-2.9,1.4-5.7,2.9-9.1,3.3
	c1.4,1,2.9,1.9,3.8,3.8l25.8,35.4h-10.5c-2.4,0-3.8-1-4.8-2.4l-23-32c-0.5-1-1.4-1.9-2.4-1.9c-1-0.5-1.9-0.5-3.8-0.5H320.8z
	 M320.8,394.6h12.4c3.3,0,6.7-0.5,9.1-1.4c2.9-1,4.8-1.9,6.7-3.8c1.9-1.4,3.3-3.3,4.3-5.7c1-2.4,1.4-4.3,1.4-7.2
	c0-5.3-1.9-9.1-5.3-12s-8.6-3.8-15.8-3.8h-13.4v33.9H320.8z"/>
</svg>
