<?xml version="1.0" encoding="utf-8"?>
<!-- Generator: Adobe Illustrator 18.0.0, SVG Export Plug-In . SVG Version: 6.00 Build 0)  -->
<!DOCTYPE svg PUBLIC "-//W3C//DTD SVG 1.1//EN" "http://www.w3.org/Graphics/SVG/1.1/DTD/svg11.dtd">
<svg version="1.1" id="Calque_1" xmlns="http://www.w3.org/2000/svg" xmlns:xlink="http://www.w3.org/1999/xlink" x="0px" y="0px"
	 viewBox="354.4 347.1 128 128" enable-background="new 354.4 347.1 128 128" xml:space="preserve">
<path d="M482.4,475.1h-34.6c-2.3,0-4.2-1.9-4.2-4.2s1.9-4.2,4.2-4.2H474v-26.3c0-2.3,1.9-4.2,4.2-4.2s4.2,1.9,4.2,4.2V475.1z"/>
<path d="M389,475.1h-34.6v-34.6c0-2.3,1.9-4.2,4.2-4.2c2.3,0,4.2,1.9,4.2,4.2v26.3H389c2.3,0,4.2,1.9,4.2,4.2S391.3,475.1,389,475.1
	z"/>
<path d="M358.5,385.8c-2.3,0-4.2-1.9-4.2-4.2v-34.5H389c2.3,0,4.2,1.9,4.2,4.2c0,2.3-1.9,4.2-4.2,4.2h-26.3v26.2
	C362.7,383.9,360.8,385.8,358.5,385.8z"/>
<path d="M478.2,385.8c-2.3,0-4.2-1.9-4.2-4.2v-26.2h-26.3c-2.3,0-4.2-1.9-4.2-4.2c0-2.3,1.9-4.2,4.2-4.2h34.6v34.5
	C482.4,383.9,480.5,385.8,478.2,385.8z"/>
</svg>
