<?xml version="1.0" encoding="utf-8"?>
<!-- Generator: Adobe Illustrator 18.1.1, SVG Export Plug-In . SVG Version: 6.00 Build 0)  -->
<svg version="1.1" id="Calque_1" xmlns="http://www.w3.org/2000/svg" xmlns:xlink="http://www.w3.org/1999/xlink" x="0px" y="0px"
	 viewBox="280 152 128 128" enable-background="new 280 152 128 128" xml:space="preserve">
<path d="M280,257.7h11.2v-35.7h33.9v-9.3h-33.9v-29H331v-9.4h-51V257.7z M383.9,223.8c-0.8-1.8-2.2-2.6-3.5-3.5
	c3.2-0.4,5.8-1.8,8.5-3.1c2.2-1.8,4.5-3.1,6.3-5.3c1.8-1.8,3.2-4.5,4-6.7c0.8-2.2,1.3-4.9,1.3-8c0-3.5-0.8-6.6-1.8-9.3
	c-0.8-2.6-2.6-4.9-5.3-7.1c-2.2-1.8-5.3-3.5-9.3-4.5c-4-1.3-8.5-1.8-13.8-1.8h-23.6v83h11.2v-34.9h8.7c1.8,0,2.6,0,3.5,0.5
	c0.9,0,1.8,0.8,2.2,1.8l21.5,29.9c0.9,1.3,2.2,2.2,4.5,2.2h9.8L383.9,223.8z M369.3,214.6h-12.1v-31.6h12.5c6.7,0,11.6,0.8,14.8,3.5
	c3.2,2.7,4.9,6.3,4.9,11.2c0,2.7-0.4,4.5-1.3,6.7c-0.9,2.2-2.2,4-4,5.3c-1.8,1.8-3.5,2.6-6.3,3.5
	C375.6,214.1,372.4,214.6,369.3,214.6z"/>
</svg>
