<?xml version="1.0" encoding="utf-8"?>
<!-- Generator: Adobe Illustrator 18.0.0, SVG Export Plug-In . SVG Version: 6.00 Build 0)  -->
<!DOCTYPE svg PUBLIC "-//W3C//DTD SVG 1.1//EN" "http://www.w3.org/Graphics/SVG/1.1/DTD/svg11.dtd">
<svg version="1.1" id="Calque_1" xmlns="http://www.w3.org/2000/svg" xmlns:xlink="http://www.w3.org/1999/xlink" x="0px" y="0px"
	 viewBox="0 0 1024 748" enable-background="new 0 0 1024 748" xml:space="preserve">
<g>
	<path d="M949.3,706.5c-5.5,0-5.8-4.4-5.8-9.9c-0.5-67.8-29.6-131.3-74.1-179c-44.3-47.4-102.9-73.5-164.9-73.5
		c-61.7,0-120.1,26-164.2,73.2c-44.2,47.3-73.9,110.3-75.3,177.6c-0.1,5.5,0.1,9.8-5.4,9.8c-0.1,0-4.8,0-4.8,0
		c-5.5-0.1-9.9-4.7-9.8-10.2c1.5-72.2,33.1-140,80.7-190.9c48-51.3,111.5-79.6,178.8-79.6c67.6,0,131.3,28.3,179.5,79.8
		c48,51.3,78.9,119.7,79.5,192.5c0,5.5-4.4,10-9.9,10.1C953.5,706.5,949.4,706.5,949.3,706.5z"/>
</g>
<g>
	<path d="M1077.9,867.7c0,39.7-29.2,73-67.2,73l0,0h-67.2v-73V760.7v-73h67.2l0,0c36.8,0,67.2,32.1,67.2,73V867.7z"/>
</g>
<g>
	<path d="M330.5,867.7c0,39.7,29.2,73,67.2,73l0,0h67.2v-73V760.7v-73h-67.2l0,0c-36.8,0-67.2,32.1-67.2,73V867.7L330.5,867.7z"/>
</g>
</svg>
