<?xml version="1.0" encoding="utf-8"?>
<!-- Generator: Adobe Illustrator 18.1.0, SVG Export Plug-In . SVG Version: 6.00 Build 0)  -->
<svg version="1.1" id="Calque_1" xmlns="http://www.w3.org/2000/svg" xmlns:xlink="http://www.w3.org/1999/xlink" x="0px" y="0px"
	 viewBox="0 0 128 128" enable-background="new 0 0 128 128" xml:space="preserve">
<path d="M-0.1,105.7h11.2V70H45v-9.3H11.1v-29h39.8v-9.4h-51V105.7z M103.8,71.8c-0.8-1.8-2.2-2.6-3.5-3.5c3.2-0.4,5.8-1.8,8.5-3.1
	c2.2-1.8,4.5-3.1,6.3-5.3c1.8-1.8,3.2-4.5,4-6.7s1.3-4.9,1.3-8c0-3.5-0.8-6.6-1.8-9.3c-0.8-2.6-2.6-4.9-5.3-7.1
	c-2.2-1.8-5.3-3.5-9.3-4.5c-4-1.3-8.5-1.8-13.8-1.8H66.6v83h11.2V70.6h8.7c1.8,0,2.6,0,3.5,0.5c0.9,0,1.8,0.8,2.2,1.8l21.5,29.9
	c0.9,1.3,2.2,2.2,4.5,2.2h9.8L103.8,71.8z M89.2,62.6H77.1V31h12.5c6.7,0,11.6,0.8,14.8,3.5c3.2,2.7,4.9,6.3,4.9,11.2
	c0,2.7-0.4,4.5-1.3,6.7s-2.2,4-4,5.3c-1.8,1.8-3.5,2.6-6.3,3.5C95.5,62.1,92.3,62.6,89.2,62.6z"/>
</svg>
