<?xml version="1.0" encoding="utf-8"?>
<!-- Generator: Adobe Illustrator 18.1.0, SVG Export Plug-In . SVG Version: 6.00 Build 0)  -->
<svg version="1.1" id="Calque_1" xmlns="http://www.w3.org/2000/svg" xmlns:xlink="http://www.w3.org/1999/xlink" x="0px" y="0px"
	 viewBox="0 0 128 128" enable-background="new 0 0 128 128" xml:space="preserve">
<g>
	<path d="M98.7,35.7c-9.2-9.3-21.5-14.4-34.7-14.4c-13.2,0-25.4,5.1-34.6,14.3C21.1,44,15.9,54.2,14.4,64.9H23v0.4
		c1.4-8.6,5.8-17,12.7-23.9c7.7-7.6,17.8-11.8,28.4-11.8c10.7,0,20.8,4.2,28.5,11.9c6.8,6.8,11.1,15,12.4,23.4h8.5
		C112.2,54.2,107.1,44,98.7,35.7z"/>
	<path d="M116.5,64.9h-2.9h-8.5H105v12.5v18.3v12.5h11.5c6.5,0,11.5-5.7,11.5-12.5V77.4C128,70.4,122.8,64.9,116.5,64.9z"/>
	<path d="M14.4,64.9h-2.9C5.2,64.9,0,70.4,0,77.4v18.3c0,6.8,5,12.5,11.5,12.5H23V95.7V77.4V65.3v-0.4H14.4z"/>
</g>
</svg>
