<?xml version="1.0" encoding="utf-8"?>
<!-- Generator: Adobe Illustrator 18.1.0, SVG Export Plug-In . SVG Version: 6.00 Build 0)  -->
<svg version="1.1" xmlns="http://www.w3.org/2000/svg" xmlns:xlink="http://www.w3.org/1999/xlink" x="0px" y="0px"
	 viewBox="0 0 128 128" enable-background="new 0 0 128 128" xml:space="preserve">
<g id="EN" display="none">
	<circle display="inline" fill="none" stroke="#FFFFFF" stroke-miterlimit="10" cx="64" cy="64" r="43.4"/>
	<g display="inline">
		<path fill="#FFFFFF" d="M60.4,54.7v2.1h-8.9v6.2h7.2v2h-7.2v6.4h8.9v2.1H48.9V54.7H60.4z"/>
		<path fill="#FFFFFF" d="M65.8,54.8c0.1,0.1,0.2,0.2,0.4,0.3l10.8,14c0-0.2,0-0.4-0.1-0.7s0-0.4,0-0.6V54.7h2.2v18.6h-1.3
			c-0.2,0-0.4,0-0.5-0.1c-0.1-0.1-0.3-0.2-0.4-0.4l-10.8-14c0,0.2,0,0.4,0,0.6s0,0.4,0,0.6v13.3H64V54.7h1.3
			C65.5,54.7,65.7,54.7,65.8,54.8z"/>
	</g>
</g>
<g id="FR" display="none">
	<circle display="inline" fill="none" stroke="#FFFFFF" stroke-miterlimit="10" cx="64" cy="64" r="43.4"/>
	<g display="inline">
		<path fill="#FFFFFF" d="M61.1,54.7v2.1h-8.9v6.5h7.6v2.1h-7.6v8h-2.5V54.7H61.1z"/>
		<path fill="#FFFFFF" d="M67.1,65.5v7.8h-2.5V54.7h5.3c1.2,0,2.2,0.1,3.1,0.4c0.9,0.2,1.6,0.6,2.1,1c0.6,0.5,1,1,1.2,1.6
			s0.4,1.3,0.4,2.1c0,0.7-0.1,1.3-0.3,1.8s-0.5,1.1-0.9,1.5c-0.4,0.5-0.9,0.8-1.4,1.2c-0.6,0.3-1.2,0.6-1.9,0.7
			c0.3,0.2,0.6,0.4,0.8,0.8l5.4,7.4h-2.2c-0.5,0-0.8-0.2-1-0.5l-4.8-6.7c-0.1-0.2-0.3-0.4-0.5-0.4c-0.2-0.1-0.4-0.1-0.8-0.1H67.1z
			 M67.1,63.7h2.6c0.7,0,1.4-0.1,1.9-0.3c0.6-0.2,1-0.4,1.4-0.8c0.4-0.3,0.7-0.7,0.9-1.2c0.2-0.5,0.3-0.9,0.3-1.5
			c0-1.1-0.4-1.9-1.1-2.5s-1.8-0.8-3.3-0.8h-2.8V63.7z"/>
	</g>
</g>
<g id="son" display="none">
	<circle display="inline" fill="none" stroke="#FFFFFF" stroke-miterlimit="10" cx="64" cy="64" r="43.4"/>
	<g display="inline">
		<path fill="#FFFFFF" d="M48.3,64v-4.8c0-0.7,0.6-1.3,1.3-1.3h4.3c0.3,0,0.7-0.1,0.9-0.4l6.6-6.6c0.8-0.8,2.2-0.2,2.2,0.9V64v12.2
			c0,1.1-1.4,1.7-2.2,0.9l-6.6-6.6c-0.2-0.2-0.6-0.4-0.9-0.4h-4.3c-0.7,0-1.3-0.6-1.3-1.3V64z"/>
		<path fill="none" stroke="#FFFFFF" stroke-width="2" stroke-linecap="round" stroke-miterlimit="10" d="M68.6,69.1
			c2.2,0,4.1-2.3,4.1-5.1s-1.8-5.1-4.1-5.1"/>
		<path fill="none" stroke="#FFFFFF" stroke-width="2" stroke-linecap="round" stroke-miterlimit="10" d="M70.9,52.3
			c4.9,0,8.8,5.2,8.8,11.7s-3.9,11.7-8.8,11.7"/>
	</g>
</g>
<g id="son_-_off" display="none">
	<circle display="inline" fill="none" stroke="#FFFFFF" stroke-miterlimit="10" cx="64" cy="64" r="43.4"/>
	<g display="inline">
		<path fill="none" stroke="#FFFFFF" stroke-width="2" stroke-miterlimit="10" d="M49.8,64v-4.8c0-0.7,0.6-1.3,1.3-1.3h4.3
			c0.3,0,0.7-0.1,0.9-0.4l6.6-6.6c0.8-0.8,2.1-0.2,2.1,0.9V64v12.1c0,1.1-1.4,1.7-2.1,0.9l-6.6-6.6c-0.2-0.2-0.6-0.4-0.9-0.4h-4.3
			c-0.7,0-1.3-0.6-1.3-1.3V64z"/>
		
			<line fill="none" stroke="#FFFFFF" stroke-width="2" stroke-linecap="round" stroke-miterlimit="10" x1="69.1" y1="59.4" x2="78.2" y2="68.6"/>
		
			<line fill="none" stroke="#FFFFFF" stroke-width="2" stroke-linecap="round" stroke-miterlimit="10" x1="69.1" y1="68.6" x2="78.2" y2="59.4"/>
	</g>
</g>
<g id="facebook" display="none">
	<circle display="inline" fill="none" stroke="#FFFFFF" stroke-miterlimit="10" cx="64" cy="64" r="43.4"/>
	<g display="inline">
		<path fill="none" stroke="#FFFFFF" stroke-width="2" stroke-miterlimit="10" d="M49.8,64v-4.8c0-0.7,0.6-1.3,1.3-1.3h4.3
			c0.3,0,0.7-0.1,0.9-0.4l6.6-6.6c0.8-0.8,2.1-0.2,2.1,0.9V64v12.1c0,1.1-1.4,1.7-2.1,0.9l-6.6-6.6c-0.2-0.2-0.6-0.4-0.9-0.4h-4.3
			c-0.7,0-1.3-0.6-1.3-1.3V64z"/>
		
			<line fill="none" stroke="#FFFFFF" stroke-width="2" stroke-linecap="round" stroke-miterlimit="10" x1="69.1" y1="59.4" x2="78.2" y2="68.6"/>
		
			<line fill="none" stroke="#FFFFFF" stroke-width="2" stroke-linecap="round" stroke-miterlimit="10" x1="69.1" y1="68.6" x2="78.2" y2="59.4"/>
	</g>
	<path display="inline" fill="#FFFFFF" d="M67.1,47.2c-0.2,2.9-0.1,5.8-0.1,9h10.6c-0.5,3.8-1,7.3-1.4,10.9h-9.2v28l-13.4,0
		c0.6,0,1.2-0.1,1.8-0.1v-28h-9.1V56.1h9.4c0-3.7-0.2-7.2,0.1-10.6c0.4-4.8,2.7-8.6,7.3-10.6c4.8-2.1,9.8-1.3,14.7-0.9v9.8
		c-2.4,0-4.6-0.1-6.7,0C69,44,67.2,44.9,67.1,47.2z"/>
</g>
<g id="fleche_x5F_droite" display="none">
	
		<polyline display="inline" fill="none" stroke="#FFFFFF" stroke-width="2" stroke-linecap="round" stroke-linejoin="round" stroke-miterlimit="10" points="
		48.9,94.2 79.1,64 48.9,33.8 	"/>
</g>
<g id="Calque_10">
	<g>
		<polygon fill="#FFFFFF" stroke="#FFFFFF" stroke-width="2" stroke-linecap="round" stroke-miterlimit="10" points="77.2,69.4 
			77.2,76.6 70,76.6 		"/>
		
			<line fill="none" stroke="#FFFFFF" stroke-width="2" stroke-linecap="round" stroke-miterlimit="10" x1="77.1" y1="76.5" x2="69" y2="68.4"/>
		
			<line fill="none" stroke="#FFFFFF" stroke-width="2" stroke-linecap="round" stroke-miterlimit="10" x1="58.8" y1="68.4" x2="50.8" y2="76.4"/>
		<polygon fill="#FFFFFF" stroke="#FFFFFF" stroke-width="2" stroke-linecap="round" stroke-miterlimit="10" points="58,76.6 
			50.8,76.6 50.8,69.4 		"/>
		<polygon fill="#FFFFFF" stroke="#FFFFFF" stroke-width="2" stroke-linecap="round" stroke-miterlimit="10" points="50.8,58.6 
			50.8,51.4 58,51.4 		"/>
		
			<line fill="none" stroke="#FFFFFF" stroke-width="2" stroke-linecap="round" stroke-miterlimit="10" x1="50.9" y1="51.5" x2="59" y2="59.6"/>
		
			<line fill="none" stroke="#FFFFFF" stroke-width="2" stroke-linecap="round" stroke-miterlimit="10" x1="69.2" y1="59.6" x2="77.2" y2="51.6"/>
		<polygon fill="#FFFFFF" stroke="#FFFFFF" stroke-width="2" stroke-linecap="round" stroke-miterlimit="10" points="70,51.4 
			77.2,51.4 77.2,58.6 		"/>
	</g>
	<circle fill="none" stroke="#FFFFFF" stroke-miterlimit="10" cx="64" cy="64" r="43.4"/>
</g>
<g id="Telephone_-_copie" display="none">
	<circle display="inline" fill="none" stroke="#325AA6" stroke-miterlimit="10" cx="64" cy="64.6" r="43.4"/>
	<g display="inline">
		<polyline fill="none" stroke="#325AA6" stroke-miterlimit="10" points="46.8,59 63.3,49.5 63.3,80.2 46.7,70.6 		"/>
		<path fill="none" stroke="#325AA6" stroke-miterlimit="10" d="M47.2,70.6c-1.4,1.1-3.1,1.8-5.1,1.8c-4.3,0-7.9-3.4-7.9-7.6
			s3.5-7.6,7.9-7.6c2,0,3.7,0.7,5.1,1.8"/>
	</g>
	<path display="inline" fill="none" stroke="#325AA6" stroke-miterlimit="10" d="M70.1,75c4.3-0.6,7.7-4.5,7.7-9.2s-3.3-8.6-7.7-9.2
		"/>
	<path display="inline" fill="none" stroke="#325AA6" stroke-miterlimit="10" d="M75.3,43.7c10.1,1.1,18,10.1,18,21
		c0,10.9-7.9,19.9-18,21.1"/>
</g>
<g id="Telephone_-_copie_2" display="none">
	<g display="inline">
		<circle fill="none" stroke="#FFFFFF" stroke-miterlimit="10" cx="64" cy="64" r="43.4"/>
		<path fill="#FFFFFF" stroke="#FFFFFF" stroke-miterlimit="10" d="M54.8,88.6c-0.5,0-1,0-1.5,0c-0.4,0-0.7-0.1-1.1-0.1
			c-0.9-0.1-1.9-0.1-2.8-0.3c-2.9-0.4-5.7-1.2-8.4-2.5c-1.3-0.6-2.5-1.3-3.8-2c0-0.1,0-0.1,0-0.2c5.9,0.5,11.3-1,16.1-4.6
			c-5.1-0.4-8.5-3-10.3-7.5c0.8,0,1.6,0,2.4,0c0.8,0,1.6-0.2,2.3-0.3c0-0.1,0-0.1,0-0.2c-2.5-0.6-4.6-1.9-6.2-3.9
			c-1.6-2-2.4-4.3-2.4-6.9c0.8,0.3,1.6,0.6,2.3,0.9c0.8,0.2,1.6,0.3,2.4,0.5c0-0.1,0-0.1,0.1-0.2c-2.3-1.7-3.9-3.9-4.5-6.7
			c-0.6-2.8-0.2-5.4,1.2-8c2.9,3.5,6.3,6.2,10.2,8.2c4,2,8.1,3.1,12.6,3.3c0-0.3-0.1-0.5-0.1-0.6c0-1-0.2-2-0.1-2.9
			c0.5-4.8,3.8-8.6,8.6-9.7c0.7-0.2,1.5-0.2,2.2-0.3c0.1,0,0.3,0,0.4,0c0.7,0.1,1.4,0.2,2.1,0.3c2.1,0.4,3.9,1.4,5.5,2.9
			c0.1,0.1,0.4,0.3,0.6,0.2c1.4-0.4,2.7-0.8,4-1.3c0.9-0.3,1.7-0.8,2.7-1.2c-0.9,2.6-2.5,4.5-4.6,6c1-0.2,2.1-0.3,3.1-0.6
			c1-0.3,2-0.6,3-1c-0.8,1.4-2.8,3.6-5,5.3c-0.3,0.2-0.4,0.4-0.4,0.8c-0.1,1.8-0.1,3.5-0.3,5.3c-0.9,6.1-3.3,11.7-7.4,16.4
			c-5.4,6.4-12.3,9.9-20.6,10.6C56.4,88.4,55.6,88.5,54.8,88.6z"/>
	</g>
</g>
<g id="souris" display="none">
	<path display="inline" fill="none" stroke="#325AA6" stroke-miterlimit="10" d="M64,94.2L64,94.2c-9.5,0-17.3-7.8-17.3-17.3V51.5
		c0-9.5,7.8-17.3,17.3-17.3h0c9.5,0,17.3,7.8,17.3,17.3v25.3C81.3,86.4,73.5,94.2,64,94.2z"/>
	<ellipse display="inline" fill="none" stroke="#325AA6" stroke-miterlimit="10" cx="64" cy="43.9" rx="1.9" ry="3.7"/>
	
		<circle display="inline" opacity="0.15" fill="none" stroke="#325AA6" stroke-width="0.75" stroke-miterlimit="10" cx="82.4" cy="12.5" r="5.1"/>
	
		<circle display="inline" opacity="5.000000e-002" fill="none" stroke="#325AA6" stroke-width="0.75" stroke-miterlimit="10" cx="69.1" cy="12.5" r="5.1"/>
	
		<circle display="inline" opacity="0.45" fill="none" stroke="#325AA6" stroke-width="0.75" stroke-miterlimit="10" cx="95.8" cy="12.5" r="5.1"/>
	<circle display="inline" fill="none" stroke="#325AA6" stroke-width="0.75" stroke-miterlimit="10" cx="109.2" cy="12.5" r="5.1"/>
</g>
</svg>
