<?xml version="1.0" encoding="utf-8"?>
<!-- Generator: Adobe Illustrator 18.1.0, SVG Export Plug-In . SVG Version: 6.00 Build 0)  -->
<svg version="1.1" xmlns="http://www.w3.org/2000/svg" xmlns:xlink="http://www.w3.org/1999/xlink" x="0px" y="0px"
	 viewBox="0 0 128 128" enable-background="new 0 0 128 128" xml:space="preserve">
<g id="Telephone">
	<circle fill="none" stroke="#FFFFFF" stroke-miterlimit="10" cx="64" cy="64" r="43.4"/>
	<g>
		<path fill="#FFFFFF" d="M60.4,54.7v2.1h-8.9v6.2h7.2v2h-7.2v6.4h8.9v2.1H48.9V54.7H60.4z"/>
		<path fill="#FFFFFF" d="M65.8,54.8c0.1,0.1,0.2,0.2,0.4,0.3l10.8,14c0-0.2,0-0.4-0.1-0.7s0-0.4,0-0.6V54.7h2.2v18.6h-1.3
			c-0.2,0-0.4,0-0.5-0.1c-0.1-0.1-0.3-0.2-0.4-0.4l-10.8-14c0,0.2,0,0.4,0,0.6s0,0.4,0,0.6v13.3H64V54.7h1.3
			C65.5,54.7,65.7,54.7,65.8,54.8z"/>
	</g>
</g>
<g id="Telephone_-_copie" display="none">
	<circle display="inline" fill="none" stroke="#325AA6" stroke-miterlimit="10" cx="64" cy="64.6" r="43.4"/>
	<g display="inline">
		<polyline fill="none" stroke="#325AA6" stroke-miterlimit="10" points="46.8,59 63.3,49.5 63.3,80.2 46.7,70.6 		"/>
		<path fill="none" stroke="#325AA6" stroke-miterlimit="10" d="M47.2,70.6c-1.4,1.1-3.1,1.8-5.1,1.8c-4.3,0-7.9-3.4-7.9-7.6
			s3.5-7.6,7.9-7.6c2,0,3.7,0.7,5.1,1.8"/>
	</g>
	<path display="inline" fill="none" stroke="#325AA6" stroke-miterlimit="10" d="M70.1,75c4.3-0.6,7.7-4.5,7.7-9.2s-3.3-8.6-7.7-9.2
		"/>
	<path display="inline" fill="none" stroke="#325AA6" stroke-miterlimit="10" d="M75.3,43.7c10.1,1.1,18,10.1,18,21
		c0,10.9-7.9,19.9-18,21.1"/>
</g>
<g id="Telephone_-_copie_2" display="none">
	<g display="inline">
		<circle fill="none" stroke="#FFFFFF" stroke-miterlimit="10" cx="64" cy="64" r="43.4"/>
		<path fill="#FFFFFF" stroke="#FFFFFF" stroke-miterlimit="10" d="M54.8,88.6c-0.5,0-1,0-1.5,0c-0.4,0-0.7-0.1-1.1-0.1
			c-0.9-0.1-1.9-0.1-2.8-0.3c-2.9-0.4-5.7-1.2-8.4-2.5c-1.3-0.6-2.5-1.3-3.8-2c0-0.1,0-0.1,0-0.2c5.9,0.5,11.3-1,16.1-4.6
			c-5.1-0.4-8.5-3-10.3-7.5c0.8,0,1.6,0,2.4,0c0.8,0,1.6-0.2,2.3-0.3c0-0.1,0-0.1,0-0.2c-2.5-0.6-4.6-1.9-6.2-3.9
			c-1.6-2-2.4-4.3-2.4-6.9c0.8,0.3,1.6,0.6,2.3,0.9c0.8,0.2,1.6,0.3,2.4,0.5c0-0.1,0-0.1,0.1-0.2c-2.3-1.7-3.9-3.9-4.5-6.7
			c-0.6-2.8-0.2-5.4,1.2-8c2.9,3.5,6.3,6.2,10.2,8.2c4,2,8.1,3.1,12.6,3.3c0-0.3-0.1-0.5-0.1-0.6c0-1-0.2-2-0.1-2.9
			c0.5-4.8,3.8-8.6,8.6-9.7c0.7-0.2,1.5-0.2,2.2-0.3c0.1,0,0.3,0,0.4,0c0.7,0.1,1.4,0.2,2.1,0.3c2.1,0.4,3.9,1.4,5.5,2.9
			c0.1,0.1,0.4,0.3,0.6,0.2c1.4-0.4,2.7-0.8,4-1.3c0.9-0.3,1.7-0.8,2.7-1.2c-0.9,2.6-2.5,4.5-4.6,6c1-0.2,2.1-0.3,3.1-0.6
			c1-0.3,2-0.6,3-1c-0.8,1.4-2.8,3.6-5,5.3c-0.3,0.2-0.4,0.4-0.4,0.8c-0.1,1.8-0.1,3.5-0.3,5.3c-0.9,6.1-3.3,11.7-7.4,16.4
			c-5.4,6.4-12.3,9.9-20.6,10.6C56.4,88.4,55.6,88.5,54.8,88.6z"/>
	</g>
</g>
<g id="souris" display="none">
	<path display="inline" fill="none" stroke="#325AA6" stroke-miterlimit="10" d="M64,94.2L64,94.2c-9.5,0-17.3-7.8-17.3-17.3V51.5
		c0-9.5,7.8-17.3,17.3-17.3h0c9.5,0,17.3,7.8,17.3,17.3v25.3C81.3,86.4,73.5,94.2,64,94.2z"/>
	<ellipse display="inline" fill="none" stroke="#325AA6" stroke-miterlimit="10" cx="64" cy="43.9" rx="1.9" ry="3.7"/>
	
		<circle display="inline" opacity="0.15" fill="none" stroke="#325AA6" stroke-width="0.75" stroke-miterlimit="10" cx="82.4" cy="12.5" r="5.1"/>
	
		<circle display="inline" opacity="5.000000e-002" fill="none" stroke="#325AA6" stroke-width="0.75" stroke-miterlimit="10" cx="69.1" cy="12.5" r="5.1"/>
	
		<circle display="inline" opacity="0.45" fill="none" stroke="#325AA6" stroke-width="0.75" stroke-miterlimit="10" cx="95.8" cy="12.5" r="5.1"/>
	<circle display="inline" fill="none" stroke="#325AA6" stroke-width="0.75" stroke-miterlimit="10" cx="109.2" cy="12.5" r="5.1"/>
</g>
</svg>
